<mxfile host="65bd71144e">
    <diagram id="T8pmpTCMuDaPm9wjzUCa" name="Page-1">
        <mxGraphModel dx="2151" dy="923" grid="1" gridSize="10" guides="1" tooltips="1" connect="1" arrows="1" fold="1" page="1" pageScale="1" pageWidth="827" pageHeight="1169" background="none" math="0" shadow="0">
            <root>
                <mxCell id="0"/>
                <mxCell id="1" parent="0"/>
                <mxCell id="2" value="(メッセージ送信元のコンポーネント)" style="rounded=0;whiteSpace=wrap;html=1;" parent="1" vertex="1">
                    <mxGeometry y="160" width="284" height="60" as="geometry"/>
                </mxCell>
                <mxCell id="7" value="impl NetworkBehaviour" style="rounded=0;whiteSpace=wrap;html=1;" parent="1" vertex="1">
                    <mxGeometry x="400.12" y="160" width="300" height="60" as="geometry"/>
                </mxCell>
                <mxCell id="8" value="" style="endArrow=classic;html=1;entryX=0;entryY=0.5;entryDx=0;entryDy=0;" parent="1" target="70" edge="1">
                    <mxGeometry width="50" height="50" relative="1" as="geometry">
                        <mxPoint x="140" y="330" as="sourcePoint"/>
                        <mxPoint x="384.5" y="530" as="targetPoint"/>
                    </mxGeometry>
                </mxCell>
                <mxCell id="10" value="" style="endArrow=none;html=1;" parent="1" edge="1">
                    <mxGeometry width="50" height="50" relative="1" as="geometry">
                        <mxPoint x="549.62" y="1220" as="sourcePoint"/>
                        <mxPoint x="549.62" y="220" as="targetPoint"/>
                    </mxGeometry>
                </mxCell>
                <mxCell id="11" value="######################################&lt;br&gt;Outboundメッセージを扱う流れ (TCPの前提)&lt;br&gt;######################################" style="shape=note;whiteSpace=wrap;html=1;backgroundOutline=1;darkOpacity=0.05;fontStyle=1" parent="1" vertex="1">
                    <mxGeometry x="-270" y="20" width="340" height="100" as="geometry"/>
                </mxCell>
                <mxCell id="14" value="impl ConnectionHandler" style="rounded=0;whiteSpace=wrap;html=1;" parent="1" vertex="1">
                    <mxGeometry x="838.12" y="160" width="260" height="60" as="geometry"/>
                </mxCell>
                <mxCell id="17" value="" style="endArrow=none;html=1;startArrow=none;" parent="1" source="74" edge="1">
                    <mxGeometry width="50" height="50" relative="1" as="geometry">
                        <mxPoint x="978.12" y="1220" as="sourcePoint"/>
                        <mxPoint x="978.12" y="220" as="targetPoint"/>
                    </mxGeometry>
                </mxCell>
                <mxCell id="40" value="impl OutboundUpgrade" style="rounded=0;whiteSpace=wrap;html=1;" parent="1" vertex="1">
                    <mxGeometry x="1220" y="160" width="320" height="60" as="geometry"/>
                </mxCell>
                <mxCell id="42" value="" style="endArrow=none;html=1;" parent="1" edge="1">
                    <mxGeometry width="50" height="50" relative="1" as="geometry">
                        <mxPoint x="1385" y="1318.8235294117646" as="sourcePoint"/>
                        <mxPoint x="1385.01" y="220" as="targetPoint"/>
                    </mxGeometry>
                </mxCell>
                <mxCell id="69" value="" style="endArrow=none;html=1;entryX=0.5;entryY=1;entryDx=0;entryDy=0;" parent="1" target="2" edge="1">
                    <mxGeometry width="50" height="50" relative="1" as="geometry">
                        <mxPoint x="142" y="1458.8235294117646" as="sourcePoint"/>
                        <mxPoint x="142" y="390" as="targetPoint"/>
                    </mxGeometry>
                </mxCell>
                <mxCell id="70" value="例: fn send_message()&lt;br&gt;&lt;br&gt;Handlerへ渡すイベント（送信するメッセージ情報を含む）を&lt;br&gt;作成してキューにためる&lt;br&gt;&lt;br&gt;「NetworkBehaviourAction::NotifyHandler」" style="html=1;dashed=0;whitespace=wrap;" parent="1" vertex="1">
                    <mxGeometry x="357.87" y="280" width="384.5" height="100" as="geometry"/>
                </mxCell>
                <mxCell id="71" value="fn poll()&lt;br&gt;&lt;br&gt;キューからイベントを取り出し、Poll::Readyで返す" style="html=1;dashed=0;whitespace=wrap;" parent="1" vertex="1">
                    <mxGeometry x="373.99" y="440" width="352.25" height="100" as="geometry"/>
                </mxCell>
                <mxCell id="72" value="" style="endArrow=classic;html=1;entryX=0;entryY=0.5;entryDx=0;entryDy=0;" parent="1" target="71" edge="1">
                    <mxGeometry width="50" height="50" relative="1" as="geometry">
                        <mxPoint x="-190" y="490" as="sourcePoint"/>
                        <mxPoint x="617.75" y="530" as="targetPoint"/>
                    </mxGeometry>
                </mxCell>
                <mxCell id="75" value="fn poll()&lt;br&gt;&lt;br&gt;キューからメッセージを取り出し、下記イベントをPoll::Readyで返す&lt;br&gt;「ConnectionHandlerEvent::OutboundSubstreamRequest」&lt;br&gt;&lt;br&gt;その際に upgrade と info を指定する" style="html=1;dashed=0;whitespace=wrap;" parent="1" vertex="1">
                    <mxGeometry x="767.81" y="760" width="418.88" height="100" as="geometry"/>
                </mxCell>
                <mxCell id="76" value="" style="endArrow=none;html=1;" parent="1" target="75" edge="1">
                    <mxGeometry width="50" height="50" relative="1" as="geometry">
                        <mxPoint x="977" y="1240" as="sourcePoint"/>
                        <mxPoint x="1200" y="230" as="targetPoint"/>
                    </mxGeometry>
                </mxCell>
                <mxCell id="74" value="fn inject_event()&lt;br&gt;&lt;br&gt;NetworkBehaviourから受け取ったイベントから&lt;br&gt;送信するメッセージを取り出し、キューにためる" style="html=1;dashed=0;whitespace=wrap;" parent="1" vertex="1">
                    <mxGeometry x="801.12" y="600" width="352.25" height="100" as="geometry"/>
                </mxCell>
                <mxCell id="77" value="" style="endArrow=none;html=1;startArrow=none;" parent="1" source="75" target="74" edge="1">
                    <mxGeometry width="50" height="50" relative="1" as="geometry">
                        <mxPoint x="974.4702906976746" y="1030" as="sourcePoint"/>
                        <mxPoint x="978.12" y="220" as="targetPoint"/>
                    </mxGeometry>
                </mxCell>
                <mxCell id="78" value="libp2p" style="html=1;dashed=0;whitespace=wrap;" parent="1" vertex="1">
                    <mxGeometry x="-280" y="160" width="160" height="50" as="geometry"/>
                </mxCell>
                <mxCell id="79" value="" style="endArrow=none;html=1;entryX=0.5;entryY=1;entryDx=0;entryDy=0;" parent="1" target="78" edge="1">
                    <mxGeometry width="50" height="50" relative="1" as="geometry">
                        <mxPoint x="-200" y="1470" as="sourcePoint"/>
                        <mxPoint x="250.99999999999955" y="390" as="targetPoint"/>
                    </mxGeometry>
                </mxCell>
                <mxCell id="80" value="fn upgrade_outbound()&lt;br&gt;&lt;br&gt;メッセージをエンコードして送信する" style="html=1;dashed=0;whitespace=wrap;" parent="1" vertex="1">
                    <mxGeometry x="1200" y="910" width="352.25" height="100" as="geometry"/>
                </mxCell>
                <mxCell id="81" value="" style="endArrow=classic;html=1;entryX=0;entryY=0.5;entryDx=0;entryDy=0;" parent="1" target="74" edge="1">
                    <mxGeometry width="50" height="50" relative="1" as="geometry">
                        <mxPoint x="-200" y="650" as="sourcePoint"/>
                        <mxPoint x="568.8800000000001" y="740" as="targetPoint"/>
                    </mxGeometry>
                </mxCell>
                <mxCell id="82" value="" style="endArrow=classic;html=1;entryX=0;entryY=0.5;entryDx=0;entryDy=0;" parent="1" target="75" edge="1">
                    <mxGeometry width="50" height="50" relative="1" as="geometry">
                        <mxPoint x="-200" y="810" as="sourcePoint"/>
                        <mxPoint x="1031.88" y="900" as="targetPoint"/>
                    </mxGeometry>
                </mxCell>
                <mxCell id="83" value="" style="endArrow=classic;html=1;entryX=0;entryY=0.5;entryDx=0;entryDy=0;" parent="1" target="80" edge="1">
                    <mxGeometry width="50" height="50" relative="1" as="geometry">
                        <mxPoint x="-200" y="960" as="sourcePoint"/>
                        <mxPoint x="1033" y="1100" as="targetPoint"/>
                    </mxGeometry>
                </mxCell>
            </root>
        </mxGraphModel>
    </diagram>
</mxfile>